<svg width="14" height="14" viewBox="0 0 14 14" fill="none" xmlns="http://www.w3.org/2000/svg">
<path d="M5.07043 2.63265C5.46909 1.46598 7.08109 1.43065 7.55376 2.52665L7.59376 2.63332L8.13176 4.20665C8.25506 4.56747 8.4543 4.89766 8.71605 5.17493C8.9778 5.45221 9.29597 5.67013 9.64909 5.81398L9.79376 5.86798L11.3671 6.40532C12.5338 6.80398 12.5691 8.41598 11.4738 8.88865L11.3671 8.92865L9.79376 9.46665C9.43281 9.58986 9.1025 9.78907 8.82511 10.0508C8.54771 10.3126 8.32969 10.6308 8.18576 10.984L8.13176 11.128L7.59443 12.702C7.19576 13.8687 5.58376 13.904 5.11176 12.8087L5.07043 12.702L4.53309 11.1287C4.40988 10.7677 4.21067 10.4374 3.94892 10.16C3.68717 9.8826 3.36896 9.66458 3.01576 9.52065L2.87176 9.46665L1.29843 8.92932C0.131093 8.53065 0.0957597 6.91865 1.19176 6.44665L1.29843 6.40532L2.87176 5.86798C3.23258 5.74469 3.56277 5.54545 3.84004 5.2837C4.11732 5.02195 4.33523 4.70378 4.47909 4.35065L4.53309 4.20665L5.07043 2.63265ZM6.33243 3.06332L5.79509 4.63665C5.60735 5.18685 5.30194 5.68952 4.90012 6.10965C4.4983 6.52978 4.00972 6.85727 3.46843 7.06932L3.30176 7.12998L1.72843 7.66732L3.30176 8.20465C3.85196 8.39239 4.35463 8.69781 4.77476 9.09963C5.19489 9.50145 5.52238 9.99002 5.73443 10.5313L5.79509 10.698L6.33243 12.2713L6.86976 10.698C7.0575 10.1478 7.36291 9.64512 7.76474 9.22499C8.16656 8.80486 8.65513 8.47737 9.19643 8.26532L9.36309 8.20532L10.9364 7.66732L9.36309 7.12998C8.81289 6.94225 8.31022 6.63683 7.8901 6.23501C7.46997 5.83319 7.14248 5.34462 6.93043 4.80332L6.87043 4.63665L6.33243 3.06332ZM11.6658 0.333984C11.7905 0.333984 11.9127 0.36897 12.0185 0.434965C12.1244 0.500961 12.2096 0.59532 12.2644 0.707318L12.2964 0.785318L12.5298 1.46932L13.2144 1.70265C13.3394 1.74511 13.449 1.82373 13.5292 1.92853C13.6095 2.03333 13.6569 2.1596 13.6653 2.29133C13.6737 2.42307 13.6428 2.55434 13.5766 2.66851C13.5103 2.78268 13.4117 2.87461 13.2931 2.93265L13.2144 2.96465L12.5304 3.19798L12.2971 3.88265C12.2546 4.0076 12.1759 4.11712 12.071 4.19731C11.9662 4.27751 11.8399 4.32478 11.7082 4.33313C11.5765 4.34149 11.4452 4.31055 11.3311 4.24424C11.217 4.17793 11.1251 4.07923 11.0671 3.96065L11.0351 3.88265L10.8018 3.19865L10.1171 2.96532C9.99211 2.92285 9.88254 2.84424 9.80227 2.73944C9.72201 2.63464 9.67467 2.50837 9.66624 2.37664C9.65782 2.2449 9.68869 2.11363 9.75495 1.99946C9.82121 1.88529 9.91987 1.79336 10.0384 1.73532L10.1171 1.70332L10.8011 1.46998L11.0344 0.785318C11.0794 0.653601 11.1644 0.539257 11.2777 0.458317C11.3909 0.377377 11.5266 0.333901 11.6658 0.333984Z" fill="#1F2937"/>
</svg>
