<svg width="16" height="16" viewBox="0 0 16 16" fill="none" xmlns="http://www.w3.org/2000/svg">
<g clip-path="url(#clip0_3188_2538)">
<path d="M13.001 0.667206C13.1957 0.667234 13.3887 0.706496 13.5684 0.781464C13.7473 0.856181 13.9103 0.965132 14.0469 1.10275L14.0479 1.10471L14.8965 1.95236C15.0351 2.08827 15.1452 2.25101 15.2207 2.4299C15.2968 2.61034 15.3359 2.80437 15.3359 3.00021C15.3359 3.19611 15.2969 3.39005 15.2207 3.57053C15.1452 3.74929 15.035 3.91125 14.8965 4.04709L4.04785 14.8957C3.91201 15.0342 3.75005 15.1445 3.57129 15.2199C3.39082 15.2961 3.19687 15.3351 3.00098 15.3352C2.80513 15.3352 2.6111 15.2961 2.43066 15.2199C2.25177 15.1444 2.08903 15.0344 1.95312 14.8957L1.10547 14.0471L1.10352 14.0461C0.965893 13.9095 0.856944 13.7465 0.782227 13.5676C0.707258 13.3879 0.667996 13.1949 0.667969 13.0002C0.667969 12.8055 0.707232 12.6126 0.782227 12.4328C0.856941 12.2538 0.965823 12.091 1.10352 11.9543L11.9551 1.10275C12.0918 0.965061 12.2545 0.856176 12.4336 0.781464C12.6133 0.706469 12.8062 0.667206 13.001 0.667206ZM2.04297 12.9006C2.02986 12.9136 2.0198 12.9295 2.0127 12.9465C2.00563 12.9635 2.00195 12.9818 2.00195 13.0002C2.00198 13.0187 2.0056 13.0369 2.0127 13.0539C2.01982 13.071 2.02985 13.0868 2.04297 13.0998L2.0459 13.1018L2.90527 13.9621C2.91765 13.9748 2.93291 13.9845 2.94922 13.9914C2.96557 13.9983 2.98324 14.0022 3.00098 14.0022C3.01872 14.0021 3.03639 13.9983 3.05273 13.9914C3.06908 13.9845 3.0843 13.9748 3.09668 13.9621L3.10254 13.9553L10.3906 6.66623L9.33398 5.60959L2.04297 12.9006ZM12.9473 2.01193C12.9302 2.01904 12.9144 2.0291 12.9014 2.04221L12.8984 2.04514L10.2764 4.66623L11.334 5.72385L13.9629 3.09592C13.9756 3.08353 13.9853 3.06831 13.9922 3.05197C13.9991 3.03562 14.0029 3.01796 14.0029 3.00021C14.0029 2.98247 13.9991 2.96481 13.9922 2.94846C13.9853 2.93215 13.9755 2.91689 13.9629 2.90451L13.9561 2.89767L13.1025 2.04514L13.1006 2.04221C13.0876 2.02909 13.0717 2.01906 13.0547 2.01193C13.0377 2.00483 13.0194 2.00122 13.001 2.00119C12.9826 2.00119 12.9643 2.00487 12.9473 2.01193Z" fill="#A855F7"/>
<path d="M3.33203 3.33301C3.70022 3.33301 3.99902 3.63181 3.99902 4V4.66699H4.66602C5.03395 4.66717 5.33186 4.96508 5.33203 5.33301C5.33203 5.70109 5.03406 5.99982 4.66602 6H3.99902V6.66699C3.99885 7.03503 3.70011 7.33301 3.33203 7.33301C2.9641 7.33283 2.66619 7.03492 2.66602 6.66699V6H1.99902C1.63083 6 1.33203 5.7012 1.33203 5.33301C1.33221 4.96497 1.63094 4.66699 1.99902 4.66699H2.66602V4C2.66602 3.63192 2.96399 3.33318 3.33203 3.33301Z" fill="#A855F7"/>
<path d="M12.668 8.66699C13.0359 8.66717 13.3338 8.96508 13.334 9.33301V10H14.001C14.3692 10 14.668 10.2988 14.668 10.667C14.6678 11.035 14.3691 11.333 14.001 11.333H13.334V12C13.334 12.3681 13.036 12.6668 12.668 12.667C12.2998 12.667 12.001 12.3682 12.001 12V11.333H11.334C10.9661 11.3328 10.6681 11.0349 10.668 10.667C10.668 10.2989 10.9659 10.0002 11.334 10H12.001V9.33301C12.0012 8.96497 12.2999 8.66699 12.668 8.66699Z" fill="#A855F7"/>
<path d="M6.66602 0.666992C7.03395 0.667168 7.33186 0.965076 7.33203 1.33301L7.4668 1.34668C7.77057 1.40886 7.99902 1.67785 7.99902 2C7.99902 2.32215 7.77057 2.59114 7.4668 2.65332L7.33203 2.66699L7.31836 2.80078C7.25627 3.10454 6.98809 3.33285 6.66602 3.33301C6.34378 3.33301 6.07478 3.10467 6.0127 2.80078L5.99902 2.66699L5.86426 2.65332C5.56065 2.59102 5.33203 2.32204 5.33203 2C5.33203 1.67796 5.56065 1.40898 5.86426 1.34668L5.99902 1.33301C5.9992 0.964968 6.29793 0.666992 6.66602 0.666992Z" fill="#A855F7"/>
</g>
<defs>
<clipPath id="clip0_3188_2538">
<rect width="16" height="16" fill="white"/>
</clipPath>
</defs>
</svg>
