<svg width="21" height="21" viewBox="0 0 21 21" fill="none" xmlns="http://www.w3.org/2000/svg">
<path d="M7.12532 4.01885C7.72613 2.26065 10.1555 2.2074 10.8678 3.8591L10.9281 4.01985L11.7388 6.39091C11.9247 6.93468 12.2249 7.43228 12.6194 7.85015C13.0139 8.26801 13.4933 8.59642 14.0255 8.81322L14.2435 8.89459L16.6146 9.70437C18.3728 10.3052 18.426 12.7345 16.7753 13.4468L16.6146 13.5071L14.2435 14.3179C13.6996 14.5036 13.2018 14.8038 12.7837 15.1983C12.3657 15.5927 12.0371 16.0723 11.8202 16.6046L11.7388 16.8216L10.9291 19.1936C10.3283 20.9518 7.89893 21.0051 7.18761 19.3544L7.12532 19.1936L6.31555 16.8226C6.12986 16.2786 5.82965 15.7808 5.43518 15.3628C5.04071 14.9447 4.56115 14.6162 4.02888 14.3993L3.81187 14.3179L1.4408 13.5081C-0.318403 12.9073 -0.371652 10.478 1.28005 9.76666L1.4408 9.70437L3.81187 8.89459C4.35564 8.70879 4.85324 8.40852 5.2711 8.01406C5.68896 7.61959 6.01737 7.1401 6.23417 6.60793L6.31555 6.39091L7.12532 4.01885ZM9.0272 4.66788L8.21742 7.03894C7.93449 7.86811 7.47422 8.62564 6.86866 9.25879C6.2631 9.89194 5.52681 10.3855 4.71106 10.705L4.45989 10.7965L2.08883 11.6062L4.45989 12.416C5.28906 12.699 6.0466 13.1592 6.67974 13.7648C7.31289 14.3703 7.80643 15.1066 8.12599 15.9224L8.21742 16.1736L9.0272 18.5446L9.83698 16.1736C10.1199 15.3444 10.5802 14.5868 11.1857 13.9537C11.7913 13.3206 12.5276 12.827 13.3433 12.5075L13.5945 12.417L15.9656 11.6062L13.5945 10.7965C12.7653 10.5135 12.0078 10.0533 11.3747 9.44771C10.7415 8.84215 10.248 8.10586 9.9284 7.29011L9.83798 7.03894L9.0272 4.66788ZM17.0647 0.554688C17.2527 0.554687 17.4368 0.607412 17.5963 0.706869C17.7558 0.806326 17.8842 0.948528 17.9669 1.11731L18.0151 1.23486L18.3668 2.26567L19.3986 2.61731C19.5869 2.6813 19.7521 2.79978 19.873 2.95771C19.994 3.11565 20.0653 3.30594 20.078 3.50447C20.0907 3.703 20.0442 3.90083 19.9443 4.07289C19.8445 4.24495 19.6958 4.38349 19.5171 4.47096L19.3986 4.51918L18.3678 4.87082L18.0161 5.90264C17.952 6.09094 17.8335 6.25598 17.6755 6.37684C17.5175 6.4977 17.3272 6.56894 17.1286 6.58153C16.9301 6.59412 16.7323 6.54749 16.5603 6.44756C16.3883 6.34763 16.2499 6.19889 16.1625 6.02018L16.1143 5.90264L15.7626 4.87183L14.7308 4.52019C14.5424 4.45619 14.3773 4.33772 14.2564 4.17978C14.1354 4.02185 14.0641 3.83156 14.0514 3.63303C14.0387 3.4345 14.0852 3.23667 14.185 3.06461C14.2849 2.89255 14.4336 2.75401 14.6123 2.66654L14.7308 2.61831L15.7616 2.26667L16.1133 1.23486C16.181 1.03636 16.3092 0.864039 16.4798 0.74206C16.6504 0.620082 16.855 0.554562 17.0647 0.554688Z" fill="#4338CA"/>
</svg>
