<svg width="40" height="40" viewBox="0 0 40 40" fill="none" xmlns="http://www.w3.org/2000/svg">
<rect x="3" y="3" width="33.6" height="33.6" rx="16.8" fill="#F3E8FF"/>
<rect x="3" y="3" width="33.6" height="33.6" rx="16.8" stroke="#FAF5FF" stroke-width="5.6"/>
<path d="M16.3 13.5V15.88C16.3 16.272 16.3 16.4681 16.3763 16.6178C16.4434 16.7495 16.5505 16.8566 16.6822 16.9237C16.8319 17 17.028 17 17.42 17H22.18C22.572 17 22.7681 17 22.9178 16.9237C23.0495 16.8566 23.1566 16.7495 23.2237 16.6178C23.3 16.4681 23.3 16.272 23.3 15.88V14.2M23.3 26.1V21.62C23.3 21.228 23.3 21.0319 23.2237 20.8822C23.1566 20.7505 23.0495 20.6434 22.9178 20.5763C22.7681 20.5 22.572 20.5 22.18 20.5H17.42C17.028 20.5 16.8319 20.5 16.6822 20.5763C16.5505 20.6434 16.4434 20.7505 16.3763 20.8822C16.3 21.0319 16.3 21.228 16.3 21.62V26.1M26.1 17.9278V22.74C26.1 23.9161 26.1 24.5042 25.8711 24.9534C25.6698 25.3485 25.3485 25.6698 24.9534 25.8711C24.5042 26.1 23.9161 26.1 22.74 26.1H16.86C15.6839 26.1 15.0958 26.1 14.6466 25.8711C14.2515 25.6698 13.9302 25.3485 13.7289 24.9534C13.5 24.5042 13.5 23.9161 13.5 22.74V16.86C13.5 15.6839 13.5 15.0958 13.7289 14.6466C13.9302 14.2515 14.2515 13.9302 14.6466 13.7289C15.0958 13.5 15.6839 13.5 16.86 13.5H21.6722C22.0146 13.5 22.1858 13.5 22.3469 13.5387C22.4898 13.573 22.6263 13.6295 22.7516 13.7063C22.8929 13.7929 23.0139 13.9139 23.2561 14.1561L25.4439 16.3439C25.6861 16.5861 25.8071 16.7071 25.8937 16.8484C25.9705 16.9737 26.027 17.1102 26.0613 17.2531C26.1 17.4142 26.1 17.5854 26.1 17.9278Z" stroke="#7E22CE" stroke-width="1.4" stroke-linecap="round" stroke-linejoin="round"/>
</svg>
