<svg width="20" height="20" viewBox="0 0 20 20" fill="none" xmlns="http://www.w3.org/2000/svg">
<path d="M18.0337 3.03366L16.967 1.96699C16.8732 1.87225 16.7616 1.79705 16.6386 1.74572C16.5156 1.6944 16.3836 1.66797 16.2503 1.66797C16.117 1.66797 15.9851 1.6944 15.8621 1.74572C15.739 1.79705 15.6274 1.87225 15.5337 1.96699L1.96699 15.5337C1.87225 15.6274 1.79705 15.739 1.74572 15.8621C1.6944 15.9851 1.66797 16.117 1.66797 16.2503C1.66797 16.3836 1.6944 16.5156 1.74572 16.6386C1.79705 16.7616 1.87225 16.8732 1.96699 16.967L3.03366 18.0337C3.12684 18.1294 3.23827 18.2055 3.36136 18.2575C3.48445 18.3095 3.61671 18.3362 3.75032 18.3362C3.88394 18.3362 4.01619 18.3095 4.13929 18.2575C4.26238 18.2055 4.37381 18.1294 4.46699 18.0337L18.0337 4.46699C18.1294 4.37381 18.2055 4.26238 18.2575 4.13929C18.3095 4.01619 18.3362 3.88394 18.3362 3.75032C18.3362 3.61671 18.3095 3.48445 18.2575 3.36136C18.2055 3.23827 18.1294 3.12684 18.0337 3.03366Z" stroke="#8B5CF6" stroke-width="1.66667" stroke-linecap="round" stroke-linejoin="round"/>
<path d="M11.667 5.83301L14.167 8.33301" stroke="#8B5CF6" stroke-width="1.66667" stroke-linecap="round" stroke-linejoin="round"/>
<path d="M4.16699 5V8.33333" stroke="#8B5CF6" stroke-width="1.66667" stroke-linecap="round" stroke-linejoin="round"/>
<path d="M15.833 11.667V15.0003" stroke="#8B5CF6" stroke-width="1.66667" stroke-linecap="round" stroke-linejoin="round"/>
<path d="M8.33301 1.66699V3.33366" stroke="#8B5CF6" stroke-width="1.66667" stroke-linecap="round" stroke-linejoin="round"/>
<path d="M5.83333 6.66699H2.5" stroke="#8B5CF6" stroke-width="1.66667" stroke-linecap="round" stroke-linejoin="round"/>
<path d="M17.5003 13.333H14.167" stroke="#8B5CF6" stroke-width="1.66667" stroke-linecap="round" stroke-linejoin="round"/>
<path d="M9.16667 2.5H7.5" stroke="#8B5CF6" stroke-width="1.66667" stroke-linecap="round" stroke-linejoin="round"/>
</svg>
